<?xml version="1.0" encoding="UTF-8"?>
<svg id="Capa_1" data-name="Capa 1" xmlns="http://www.w3.org/2000/svg" viewBox="0 0 500 500">
  <defs>
    <style>
      .cls-1 {
        fill: #fff;
      }

      .cls-2 {
        fill: #cfff46;
      }

      .cls-3 {
        fill: #212121;
      }
    </style>
  </defs>
  <rect class="cls-3" width="500" height="500"/>
  <g>
    <circle class="cls-2" cx="270" cy="329" r="4"/>
    <circle class="cls-2" cx="250" cy="329" r="4"/>
    <circle class="cls-2" cx="230" cy="329" r="4"/>
  </g>
  <g>
    <path class="cls-1" d="M153.19,236.14c0-4.36-1.01-8.23-3.03-11.61-2.02-3.38-4.89-6.01-8.61-7.89-3.72-1.88-8-2.82-12.84-2.82-6.36,0-12.14,1.41-17.34,4.23-5.2,2.82-9.3,6.74-12.3,11.76-3,5.02-4.5,10.71-4.5,17.07,0,4.56,.98,8.57,2.94,12.03,1.96,3.46,4.74,6.13,8.34,8.01,3.6,1.88,7.78,2.82,12.54,2.82,5.2,0,9.88-.92,14.04-2.76l-2.28-8.34c-3.36,1.44-7.08,2.16-11.16,2.16-4.6,0-8.22-1.34-10.86-4.02-2.64-2.68-3.96-6.3-3.96-10.86,0-4.2,1.03-8.09,3.09-11.67,2.06-3.58,4.88-6.42,8.46-8.52,3.58-2.1,7.53-3.15,11.85-3.15,3.2,0,5.99,.58,8.37,1.74s4.22,2.79,5.52,4.89c1.3,2.1,1.95,4.53,1.95,7.29,0,2.96-.41,5.41-1.23,7.35-.82,1.94-2.03,2.91-3.63,2.91-1.28,0-1.92-.76-1.92-2.28,0-.48,.06-.98,.18-1.5l2.34-13.26h-10.32l-.6,3.48c-.4-1.16-1.15-2.08-2.25-2.76-1.1-.68-2.47-1.02-4.11-1.02-2.48,0-4.72,.77-6.72,2.31-2,1.54-3.56,3.57-4.68,6.09-1.12,2.52-1.68,5.2-1.68,8.04,0,3.04,.82,5.4,2.46,7.08,1.64,1.68,3.92,2.52,6.84,2.52,2.12,0,4.01-.41,5.67-1.23,1.66-.82,2.99-2.01,3.99-3.57,.68,1.48,1.79,2.62,3.33,3.42,1.54,.8,3.41,1.2,5.61,1.2,3.48,0,6.46-.84,8.94-2.52,2.48-1.68,4.36-3.97,5.64-6.87,1.28-2.9,1.92-6.15,1.92-9.75Zm-27.99,8.76c-.82,.88-1.73,1.32-2.73,1.32-.8,0-1.43-.26-1.89-.78-.46-.52-.69-1.22-.69-2.1,0-1.36,.4-2.49,1.2-3.39,.8-.9,1.72-1.35,2.76-1.35,.76,0,1.38,.27,1.86,.81,.48,.54,.72,1.27,.72,2.19,0,1.32-.41,2.42-1.23,3.3Z"/>
    <polygon class="cls-2" points="194.11 212.56 158.35 212.56 158.35 223.12 169.51 223.12 169.51 255.04 182.83 255.04 182.83 223.12 194.11 223.12 194.11 212.56"/>
    <polygon class="cls-2" points="223.69 227.86 211.03 227.86 211.03 212.56 197.71 212.56 197.71 255.04 211.03 255.04 211.03 238.48 223.69 238.48 223.69 255.04 237.01 255.04 237.01 212.56 223.69 212.56 223.69 227.86"/>
    <polygon class="cls-2" points="243.01 255.04 271.33 255.04 271.33 244.42 256.33 244.42 256.33 238.42 269.53 238.42 269.53 228.4 256.33 228.4 256.33 223.18 271.33 223.18 271.33 212.56 243.01 212.56 243.01 255.04"/>
    <path class="cls-2" d="M312.37,255.04l-9.24-16.26c2.96-.96,5.23-2.54,6.81-4.74,1.58-2.2,2.37-4.72,2.37-7.56,0-2.64-.61-5.01-1.83-7.11-1.22-2.1-3.05-3.76-5.49-4.98-2.44-1.22-5.38-1.83-8.82-1.83h-19.8v42.48h13.32v-15.24h.06l7.98,15.24h14.64Zm-22.68-24.12v-7.2h5.28c1.24,0,2.19,.32,2.85,.96s.99,1.52,.99,2.64c0,1.24-.32,2.15-.96,2.73-.64,.58-1.6,.87-2.88,.87h-5.28Z"/>
    <polygon class="cls-2" points="344.89 244.42 329.89 244.42 329.89 238.42 343.09 238.42 343.09 228.4 329.89 228.4 329.89 223.18 344.89 223.18 344.89 212.56 316.57 212.56 316.57 255.04 344.89 255.04 344.89 244.42"/>
    <polygon class="cls-2" points="353.41 212.56 350.77 230.26 359.53 230.26 366.61 212.56 353.41 212.56"/>
    <path class="cls-2" d="M403.51,235.72c-1.28-1.64-2.79-2.92-4.53-3.84-1.74-.92-3.95-1.88-6.63-2.88-2.32-.88-4.01-1.63-5.07-2.25-1.06-.62-1.59-1.41-1.59-2.37,0-.68,.18-1.21,.54-1.59,.36-.38,.82-.57,1.38-.57,.8,0,1.48,.26,2.04,.78,.56,.52,.86,1.38,.9,2.58h14.34c-.16-4.36-1.77-7.74-4.83-10.14-3.06-2.4-7.19-3.6-12.39-3.6-3.08,0-5.85,.5-8.31,1.5-2.46,1-4.4,2.47-5.82,4.41-1.42,1.94-2.13,4.29-2.13,7.05-.04,2.76,.58,5.02,1.86,6.78,1.28,1.76,2.81,3.1,4.59,4.02,1.78,.92,4.03,1.86,6.75,2.82,2.28,.8,3.96,1.51,5.04,2.13,1.08,.62,1.62,1.43,1.62,2.43,0,.72-.25,1.25-.75,1.59-.5,.34-1.11,.51-1.83,.51-1.96,0-3.04-1.22-3.24-3.66h-14.16c.28,4.6,2.07,8.09,5.37,10.47,3.3,2.38,7.49,3.57,12.57,3.57,3.36,0,6.26-.58,8.7-1.74,2.44-1.16,4.3-2.77,5.58-4.83,1.28-2.06,1.92-4.39,1.92-6.99s-.64-4.54-1.92-6.18Z"/>
    <polygon class="cls-1" points="198.57 283.63 190.53 267.01 187.8 267.01 184.08 287.95 186.81 287.95 189.78 271.3 197.79 287.95 200.52 287.95 204.24 267.01 201.51 267.01 198.57 283.63"/>
    <path class="cls-1" d="M222.91,267.89c-1.33-.73-2.88-1.1-4.63-1.1-2.32,0-4.42,.56-6.3,1.67-1.88,1.11-3.35,2.63-4.42,4.56-1.07,1.93-1.6,4.08-1.6,6.43,0,1.7,.36,3.21,1.09,4.53s1.76,2.34,3.08,3.08,2.85,1.09,4.59,1.09c2.34,0,4.45-.55,6.33-1.67s3.35-2.63,4.43-4.56c1.07-1.93,1.6-4.08,1.6-6.47,0-1.7-.36-3.2-1.08-4.51-.72-1.31-1.75-2.33-3.08-3.06Zm.17,12.76c-.78,1.54-1.87,2.77-3.25,3.67-1.39,.91-2.97,1.37-4.73,1.37-1.96,0-3.51-.57-4.63-1.72-1.13-1.15-1.7-2.72-1.7-4.7,0-1.8,.38-3.46,1.16-5,.77-1.53,1.85-2.75,3.24-3.66,1.39-.91,2.96-1.37,4.73-1.37,1.96,0,3.51,.57,4.65,1.71,1.14,1.14,1.71,2.7,1.71,4.68,0,1.8-.39,3.47-1.17,5.01Z"/>
    <polygon class="cls-1" points="254.25 267.04 240.12 267.04 239.73 269.17 245.43 269.17 242.13 287.95 244.86 287.95 248.16 269.17 253.86 269.17 254.25 267.04"/>
    <path class="cls-1" d="M263.82,267.16l-11.22,20.79h2.88l2.49-4.65h9.15l.84,4.65h2.88l-3.87-20.79h-3.15Zm-4.71,14.01l5.7-10.68,1.92,10.68h-7.62Z"/>
    <path class="cls-1" d="M289.71,272.14c.06-1.02-.16-1.94-.66-2.76-.5-.82-1.25-1.46-2.24-1.92-.99-.46-2.17-.69-3.53-.69s-2.64,.25-3.73,.73c-1.09,.49-1.95,1.19-2.57,2.08-.62,.9-.93,1.93-.93,3.09-.04,1.1,.19,2.01,.69,2.73s1.12,1.29,1.85,1.71c.73,.42,1.69,.87,2.89,1.35,.98,.38,1.75,.73,2.33,1.04,.57,.31,1.05,.7,1.44,1.17,.39,.47,.59,1.05,.59,1.73,0,1.12-.4,1.99-1.2,2.61-.8,.62-1.88,.93-3.24,.93s-2.37-.35-3.03-1.05-.96-1.54-.9-2.52h-2.7c-.02,.14-.03,.36-.03,.66,0,1.56,.6,2.8,1.82,3.74,1.21,.93,2.78,1.39,4.72,1.39,1.48,0,2.78-.26,3.9-.79,1.12-.53,1.98-1.25,2.58-2.16,.6-.91,.9-1.94,.9-3.1,0-1.08-.26-1.98-.78-2.7-.52-.72-1.15-1.29-1.9-1.73-.75-.43-1.72-.89-2.9-1.39-.98-.42-1.75-.79-2.31-1.09-.56-.31-1.03-.69-1.4-1.14s-.55-.98-.55-1.6c0-1.06,.39-1.89,1.18-2.5s1.83-.92,3.14-.92c.84,0,1.54,.15,2.11,.45,.57,.3,.99,.69,1.26,1.17,.27,.48,.38,.98,.34,1.5h2.85Z"/>
    <polygon class="cls-1" points="306.69 267.04 296.34 276.7 298.05 267.04 295.32 267.04 291.6 287.95 294.33 287.95 296.04 278.41 302.94 287.95 306.51 287.95 298.8 277.51 310.11 267.04 306.69 267.04"/>
    <path class="cls-1" d="M325.14,272.14c.06-1.02-.16-1.94-.66-2.76-.5-.82-1.25-1.46-2.24-1.92-.99-.46-2.17-.69-3.53-.69s-2.64,.25-3.73,.73c-1.09,.49-1.95,1.19-2.57,2.08-.62,.9-.93,1.93-.93,3.09-.04,1.1,.19,2.01,.69,2.73s1.12,1.29,1.85,1.71c.73,.42,1.69,.87,2.89,1.35,.98,.38,1.75,.73,2.33,1.04,.57,.31,1.05,.7,1.44,1.17,.39,.47,.59,1.05,.59,1.73,0,1.12-.4,1.99-1.2,2.61-.8,.62-1.88,.93-3.24,.93s-2.37-.35-3.03-1.05-.96-1.54-.9-2.52h-2.7c-.02,.14-.03,.36-.03,.66,0,1.56,.6,2.8,1.82,3.74,1.21,.93,2.78,1.39,4.72,1.39,1.48,0,2.78-.26,3.9-.79,1.12-.53,1.98-1.25,2.58-2.16,.6-.91,.9-1.94,.9-3.1,0-1.08-.26-1.98-.78-2.7-.52-.72-1.15-1.29-1.9-1.73-.75-.43-1.72-.89-2.9-1.39-.98-.42-1.75-.79-2.31-1.09-.56-.31-1.03-.69-1.4-1.14s-.55-.98-.55-1.6c0-1.06,.39-1.89,1.18-2.5s1.83-.92,3.14-.92c.84,0,1.54,.15,2.11,.45,.57,.3,.99,.69,1.26,1.17,.27,.48,.38,.98,.34,1.5h2.85Z"/>
    <polygon class="cls-1" points="338.41 282.16 345.87 287.2 345.87 285.6 339.87 281.56 339.87 281.48 345.87 277.44 345.87 275.84 338.41 280.88 338.41 282.16"/>
    <ellipse class="cls-1" cx="354.97" cy="275.12" rx="1.32" ry="1.28"/>
    <polygon class="cls-1" points="349.81 279.78 354.31 279.78 354.31 288.16 355.97 288.16 355.97 278.44 349.81 278.44 349.81 279.78"/>
    <polygon class="cls-1" points="362.15 277.44 368.15 281.48 368.15 281.56 362.15 285.6 362.15 287.2 369.61 282.16 369.61 280.88 362.15 275.84 362.15 277.44"/>
    <polygon class="cls-1" points="139.61 282.16 147.07 287.2 147.07 285.6 141.07 281.56 141.07 281.48 147.07 277.44 147.07 275.84 139.61 280.88 139.61 282.16"/>
    <polygon class="cls-1" points="151.01 279.78 155.51 279.78 155.51 288.16 157.17 288.16 157.17 278.44 151.01 278.44 151.01 279.78"/>
    <ellipse class="cls-1" cx="156.17" cy="275.12" rx="1.32" ry="1.28"/>
    <polygon class="cls-1" points="163.35 277.44 169.35 281.48 169.35 281.56 163.35 285.6 163.35 287.2 170.81 282.16 170.81 280.88 163.35 275.84 163.35 277.44"/>
  </g>
</svg>