<?xml version="1.0" encoding="utf-8"?>
<!-- Generator: Adobe Illustrator 26.4.1, SVG Export Plug-In . SVG Version: 6.00 Build 0)  -->
<svg version="1.1" id="Capa_1" xmlns="http://www.w3.org/2000/svg" xmlns:xlink="http://www.w3.org/1999/xlink" x="0px" y="0px"
	 viewBox="0 0 720 720" style="enable-background:new 0 0 720 720;" xml:space="preserve">
<style type="text/css">
	.st0{fill:#212121;stroke:#212121;stroke-width:3;stroke-miterlimit:10;}
	.st1{fill:#CFFF46;stroke:#212121;stroke-width:3;stroke-miterlimit:10;}
</style>
<g>
	<g>
		<path class="st0" d="M483,3v120c0,22.09,17.91,40,40,40c22.09,0,40-17.91,40-40s17.91-40,40-40s40,17.91,40,40v160
			c0,22.09,17.91,40,40,40s40-17.91,40-40V3H483z"/>
		<circle class="st0" cx="616.33" cy="176.33" r="13.33"/>
		<circle class="st0" cx="603" cy="123" r="26.67"/>
	</g>
	<g>
		<g>
			<path class="st1" d="M480,0v120c0,22.09,17.91,40,40,40c22.09,0,40-17.91,40-40s17.91-40,40-40s40,17.91,40,40v160
				c0,22.09,17.91,40,40,40s40-17.91,40-40V0H480z"/>
			<circle class="st1" cx="613.33" cy="173.33" r="13.33"/>
			<circle class="st1" cx="600" cy="120" r="26.67"/>
		</g>
	</g>
</g>
<g>
	<g>
		<path class="st0" d="M3,3v280c0,22.09,17.91,40,40,40s40-17.91,40-40s17.91-40,40-40s40,17.91,40,40v80c0,22.09,17.91,40,40,40
			s40-17.91,40-40V123c0-22.09,17.91-40,40-40s40,17.91,40,40v80c0,22.09,17.91,40,40,40s40-17.91,40-40V3H3z"/>
		<circle class="st0" cx="136.33" cy="336.33" r="13.33"/>
		<circle class="st0" cx="123" cy="283" r="26.67"/>
		<circle class="st0" cx="296.33" cy="176.33" r="13.33"/>
		<circle class="st0" cx="283" cy="123" r="26.67"/>
	</g>
	<g>
		<g>
			<path class="st1" d="M0,0v280c0,22.09,17.91,40,40,40s40-17.91,40-40s17.91-40,40-40s40,17.91,40,40v80c0,22.09,17.91,40,40,40
				s40-17.91,40-40V120c0-22.09,17.91-40,40-40s40,17.91,40,40v80c0,22.09,17.91,40,40,40s40-17.91,40-40V0H0z"/>
			<circle class="st1" cx="133.33" cy="333.33" r="13.33"/>
			<circle class="st1" cx="120" cy="280" r="26.67"/>
			<circle class="st1" cx="293.33" cy="173.33" r="13.33"/>
			<circle class="st1" cx="280" cy="120" r="26.67"/>
		</g>
	</g>
</g>
</svg>
