<?xml version="1.0" encoding="UTF-8"?>
<svg id="Capa_1" data-name="Capa 1" xmlns="http://www.w3.org/2000/svg" viewBox="0 0 500 160">
  <path d="M0,75.36v-11.59L67.57,18.12v14.49L13.22,69.2v.73l54.35,36.59v14.49L0,75.36Z"/>
  <path d="M97.83,85.87c0-28.62,19.02-46.38,39.86-46.38,10.51,0,18.66,4.17,26.45,11.23h.36l-.72-16.12V.72h15.04V129.71h-12.32l-1.27-11.59h-.54c-7.25,7.43-17.75,13.77-28.8,13.77-22.83,0-38.04-16.67-38.04-46.01Zm65.94,20.29V62.32c-7.97-7.43-15.4-10.14-23.01-10.14-15.22,0-27.54,13.41-27.54,33.51s9.78,33.52,25.91,33.52c8.7,0,16.85-4.35,24.64-13.04Z"/>
  <path d="M252.72,53.8h-40.76v-12.14h55.8v88.04h-15.04V53.8Zm-5.98-42.21c0-6.88,5.07-11.59,11.96-11.59s11.96,4.71,11.96,11.59-5.07,11.59-11.96,11.59-11.96-4.53-11.96-11.59Z"/>
  <path d="M313.41,41.67h15.4l20.29,49.82c3.44,8.88,6.7,17.57,9.78,26.09h.73c3.08-8.51,5.98-17.21,9.6-26.09l20.29-49.82h14.49l-36.59,88.04h-16.85l-37.14-88.04Z"/>
  <path d="M432.43,106.52l54.35-36.59v-.73l-54.35-36.59v-14.49l67.57,45.65v11.59l-67.57,45.65v-14.49Z"/>
</svg>